# xmcd
# 
# Track frame offsets:
#     150
#     15151
#     23658
#     33167
#     43417
#     53260
#     63467
#     75567
#     85626
#     97233
#     110697
#     119809
#     128478
#     146158
#     158216
# 
# Disc length: 2310
# 
# Revision: 0
# Processed by: cddbd v1.5.2PL0 Copyright (c) Steve Scherf et al.
# Submitted via: fre:ac v1.0.27
# 
DISCID=bd09040f
DTITLE=Elvis - His Hand In Mine
DYEAR=1972
DGENRE=Gospel
TTITLE0=His Hand In Mine
TTITLE1=(I'm) Gonna Walk Dem Golden Stairs
TTITLE2=In My Father's House
TTITLE3=Milky White Way
TTITLE4=Known Only To Him
TTITLE5=I Believe In The Man In The Sky
TTITLE6=Joshua Fit The Battle
TTITLE7=He Knows Just What I Need
TTITLE8=Swing Down Sweet Chariot
TTITLE9=Mansion Over The Hilltop
TTITLE10=If We Never Meet Again
TTITLE11=Working On The Building
TTITLE12=It Is No Secret
TTITLE13=You'll Never Walk Alone
TTITLE14=Who Am I
EXTD=
EXTT0=
EXTT1=
EXTT2=
EXTT3=
EXTT4=
EXTT5=
EXTT6=
EXTT7=
EXTT8=
EXTT9=
EXTT10=
EXTT11=
EXTT12=
EXTT13=
EXTT14=
PLAYORDER=
